<?xml version="1.0" encoding="utf-8"?><svg viewBox="0 0 30 30" xmlns="http://www.w3.org/2000/svg" xmlns:xlink="http://www.w3.org/1999/xlink"><style>:root>svg{display:none}:root>svg:target{display:block}</style><svg fill="none" viewBox="0 0 14 15" id="svg--header_play" xmlns="http://www.w3.org/2000/svg"><path d="M1.403 14.383A1 1 0 010 13.468V1.705A1 1 0 011.489.834L13.25 7.42a1 1 0 01-.086 1.788L1.403 14.383z" fill="#000"/></svg><svg fill="none" viewBox="0 0 30 30" id="svg--steam" xmlns="http://www.w3.org/2000/svg"><path d="M22.5 0c-4.068 0-7.382 3.906-7.49 8.757l-4.588 7.869a4.714 4.714 0 00-1.047-.126c-1.185 0-2.283.447-3.19 1.201L0 14.766v8.065l3.882 1.843C4.429 27.714 6.682 30 9.375 30c2.755 0 5.043-2.392 5.523-5.534l7.216-6.49c.129.008.256.024.386.024 4.136 0 7.5-4.037 7.5-9s-3.364-9-7.5-9zm0 3c2.758 0 5 2.691 5 6s-2.242 6-5 6-5-2.691-5-6 2.242-6 5-6zm0 1.5c-.995 0-1.948.474-2.652 1.318-.703.844-1.098 1.989-1.098 3.182 0 1.194.395 2.338 1.098 3.182.704.844 1.657 1.318 2.652 1.318.995 0 1.948-.474 2.652-1.318.703-.844 1.098-1.989 1.098-3.182 0-1.193-.395-2.338-1.098-3.182C24.448 4.974 23.495 4.5 22.5 4.5zM9.375 18c2.412 0 4.375 2.355 4.375 5.25s-1.963 5.25-4.375 5.25c-1.777 0-3.302-1.282-3.987-3.111l2.837 1.347c.378.18.765.267 1.148.267 1.245 0 2.422-.897 2.907-2.37.636-1.926-.15-4.107-1.755-4.87L7.678 18.41A3.736 3.736 0 019.375 18z" fill="#0C1226"/></svg></svg>