<svg width="30" height="30" viewBox="0 0 30 30" fill="none" xmlns="http://www.w3.org/2000/svg">
<path d="M22.5 0C18.4321 0 15.1184 3.90628 15.0098 8.75684L10.4224 16.626C10.0824 16.5487 9.73338 16.5 9.375 16.5C8.1896 16.5 7.09205 16.9467 6.18408 17.7012L0 14.7656V22.8311L3.88184 24.6738C4.42867 27.7132 6.68119 30 9.375 30C12.1295 30 14.4179 27.6077 14.8975 24.4658L22.1143 17.9766C22.2427 17.9844 22.3699 18 22.5 18C26.6362 18 30 13.9635 30 9C30 4.0365 26.6362 0 22.5 0ZM22.5 3C25.2575 3 27.5 5.691 27.5 9C27.5 12.309 25.2575 15 22.5 15C19.7425 15 17.5 12.309 17.5 9C17.5 5.691 19.7425 3 22.5 3ZM22.5 4.5C21.5054 4.5 20.5516 4.97411 19.8483 5.81802C19.1451 6.66193 18.75 7.80653 18.75 9C18.75 10.1935 19.1451 11.3381 19.8483 12.182C20.5516 13.0259 21.5054 13.5 22.5 13.5C23.4946 13.5 24.4484 13.0259 25.1517 12.182C25.8549 11.3381 26.25 10.1935 26.25 9C26.25 7.80653 25.8549 6.66193 25.1517 5.81802C24.4484 4.97411 23.4946 4.5 22.5 4.5ZM9.375 18C11.7875 18 13.75 20.355 13.75 23.25C13.75 26.145 11.7875 28.5 9.375 28.5C7.5984 28.5 6.07267 27.2181 5.38818 25.3887L8.2251 26.7363C8.6026 26.9163 8.99006 27.0029 9.37256 27.0029C10.6176 27.0029 11.7953 26.1058 12.2803 24.6328C12.9165 22.7068 12.1299 20.5257 10.5249 19.7637L7.67822 18.4102C8.20015 18.1457 8.77377 18 9.375 18Z" fill="#0C1226"/>
</svg>
